<?xml version="1.0" encoding="UTF-8"?>
<svg width="76px" height="94px" viewBox="0 0 76 94" version="1.1" xmlns="http://www.w3.org/2000/svg" xmlns:xlink="http://www.w3.org/1999/xlink">
    <title>vip_type1</title>
    <defs>
        <linearGradient x1="75.549%" y1="14.66%" x2="21.94%" y2="83.458%" id="linearGradient-1">
            <stop stop-color="#A4A9B9" offset="0%"></stop>
            <stop stop-color="#DBE0EE" offset="48.976%"></stop>
            <stop stop-color="#979DB3" offset="100%"></stop>
        </linearGradient>
        <path d="M21.38033,0.0416469675 L42.2943426,12.1157598 C42.3905331,12.1712926 42.4497894,12.273925 42.4497894,12.3849949 L42.4497894,36.5331939 C42.4497894,36.6442637 42.3905331,36.7468961 42.2943426,36.802429 L21.38033,48.8765418 C21.2841457,48.9320711 21.1656438,48.9320711 21.0694595,48.8765418 L0.15544681,36.802429 C0.05925631,36.7468961 8.8817842e-16,36.6442637 8.8817842e-16,36.5331939 L8.8817842e-16,12.3849949 C8.8817842e-16,12.273925 0.05925631,12.1712926 0.15544681,12.1157598 L21.0694595,0.0416469675 C21.1656438,-0.0138823225 21.2841457,-0.0138823225 21.38033,0.0416469675 Z" id="path-2"></path>
        <linearGradient x1="77.997%" y1="16.697%" x2="23.856%" y2="85.317%" id="linearGradient-4">
            <stop stop-color="#DADDE6" offset="0%"></stop>
            <stop stop-color="#F9FAFF" offset="46.038%"></stop>
            <stop stop-color="#DADDE6" offset="100%"></stop>
        </linearGradient>
    </defs>
    <g id="页面-1" stroke="none" stroke-width="1" fill="none" fill-rule="evenodd">
        <g id="vip_type1" transform="translate(0.000000, 0.623739)">
            <g id="编组" transform="translate(37.951631, 46.563004) scale(-1, 1) rotate(-13.000000) translate(-37.951631, -46.563004) translate(8.462633, 5.583273)" fill-rule="nonzero">
                <g id="b-link" fill="#000000">
                    <path d="M16.5457308,-8.8817842e-16 L58.977997,9.79626048 L42.4530051,81.3700168 C42.3585404,81.7791665 41.9502802,82.034269 41.5411306,81.9398043 C41.4708988,81.9235892 41.4033297,81.8974696 41.3404521,81.8622298 L22.7699786,71.4544132 L22.7699786,71.4544132 L0.79692443,72.5134999 C0.37749821,72.533716 0.0210977203,72.2100922 0.00088165027,71.790666 C-0.00247972973,71.720927 0.00378088027,71.6510573 0.0194869603,71.5830268 L16.5457308,-8.8817842e-16 L16.5457308,-8.8817842e-16 Z" id="b"></path>
                </g>
                <g id="b-link" fill="#697484">
                    <path d="M16.5457308,-8.8817842e-16 L58.977997,9.79626048 L42.4530051,81.3700168 C42.3585404,81.7791665 41.9502802,82.034269 41.5411306,81.9398043 C41.4708988,81.9235892 41.4033297,81.8974696 41.3404521,81.8622298 L22.7699786,71.4544132 L22.7699786,71.4544132 L0.79692443,72.5134999 C0.37749821,72.533716 0.0210977203,72.2100922 0.00088165027,71.790666 C-0.00247972973,71.720927 0.00378088027,71.6510573 0.0194869603,71.5830268 L16.5457308,-8.8817842e-16 L16.5457308,-8.8817842e-16 Z" id="b"></path>
                </g>
            </g>
            <g id="编组" transform="translate(11.295660, 14.105878)" fill-rule="nonzero">
                <g id="c-link" fill="#9196A8">
                    <path d="M26.9448548,0.208234835 L51.5581228,14.418008 C52.0390753,14.6956723 52.3353568,15.2088343 52.3353568,15.7641835 L52.3353568,44.1835965 C52.3353568,44.7389458 52.0390753,45.2521078 51.5581228,45.5297721 L26.9448548,59.7395452 C26.4639332,60.0171917 25.8714237,60.0171917 25.3905021,59.7395452 L0.77723405,45.5297721 C0.29628154,45.2521078 8.8817842e-16,44.7389458 8.8817842e-16,44.1835965 L8.8817842e-16,15.7641835 C8.8817842e-16,15.2088343 0.29628154,14.6956723 0.77723405,14.418008 L25.3905021,0.208234835 C25.8714237,-0.0694116118 26.4639332,-0.0694116118 26.9448548,0.208234835 Z" id="c"></path>
                </g>
                <g id="c-link" fill="url(#linearGradient-1)">
                    <path d="M26.9448548,0.208234835 L51.5581228,14.418008 C52.0390753,14.6956723 52.3353568,15.2088343 52.3353568,15.7641835 L52.3353568,44.1835965 C52.3353568,44.7389458 52.0390753,45.2521078 51.5581228,45.5297721 L26.9448548,59.7395452 C26.4639332,60.0171917 25.8714237,60.0171917 25.3905021,59.7395452 L0.77723405,45.5297721 C0.29628154,45.2521078 8.8817842e-16,44.7389458 8.8817842e-16,44.1835965 L8.8817842e-16,15.7641835 C8.8817842e-16,15.2088343 0.29628154,14.6956723 0.77723405,14.418008 L25.3905021,0.208234835 C25.8714237,-0.0694116118 26.4639332,-0.0694116118 26.9448548,0.208234835 Z" id="c"></path>
                </g>
            </g>
            <g id="编组" transform="translate(16.238787, 19.621302)">
                <g id="e-link" fill="#616778" fill-rule="nonzero">
                    <path d="M21.38033,0.0416469675 L42.2943426,12.1157598 C42.3905331,12.1712926 42.4497894,12.273925 42.4497894,12.3849949 L42.4497894,36.5331939 C42.4497894,36.6442637 42.3905331,36.7468961 42.2943426,36.802429 L21.38033,48.8765418 C21.2841457,48.9320711 21.1656438,48.9320711 21.0694595,48.8765418 L0.15544681,36.802429 C0.05925631,36.7468961 8.8817842e-16,36.6442637 8.8817842e-16,36.5331939 L8.8817842e-16,12.3849949 C8.8817842e-16,12.273925 0.05925631,12.1712926 0.15544681,12.1157598 L21.0694595,0.0416469675 C21.1656438,-0.0138823225 21.2841457,-0.0138823225 21.38033,0.0416469675 Z" id="e"></path>
                </g>
                <g id="Clipped">
                    <mask id="mask-3" fill="white">
                        <use xlink:href="#path-2"></use>
                    </mask>
                    <g id="e"></g>
                    <polygon id="路径" fill="#F5F6F7" fill-rule="nonzero" opacity="0.05" mask="url(#mask-3)" points="-4.96215999 39.4638174 47.3925731 9.35192644 8.47767888 -12.8770338 -5.81440141 -2.20100397"></polygon>
                </g>
            </g>
            <polygon id="路径" stroke="url(#linearGradient-4)" stroke-width="2.432" points="37.2831713 20.7644207 57.5201104 32.2783808 57.6667144 55.560092 37.5763585 67.3279724 17.3394194 55.8140123 17.1928154 32.5323011"></polygon>
            <g id="编组" transform="translate(31.118506, 31.727432)" fill="#DADDE6" fill-rule="nonzero" font-family="BrutalType-Medium, Brutal Type" font-size="7.603" font-weight="400">
                <text id="ViP">
                    <tspan x="0" y="6">ViP</tspan>
                </text>
            </g>
            <path d="M48.4962493,36.3513725 L47.2483241,36.9956078 L47.4866566,35.6310956 L46.4770639,34.6647427 L47.8722867,34.465663 L48.4962493,33.2241888 L49.1202118,34.465663 L50.5154346,34.6647427 L49.5058419,35.6310956 L49.7441744,36.9956078 L48.4962493,36.3513725 Z M26.9619787,36.3513725 L25.7140536,36.9956078 L25.9523861,35.6310956 L24.9427934,34.6647427 L26.3380161,34.465663 L26.9619787,33.2241888 L27.5859413,34.465663 L28.9811641,34.6647427 L27.9715714,35.6310956 L28.2099039,36.9956078 L26.9619787,36.3513725 Z" id="形状" fill="#DADDE6" fill-rule="nonzero"></path>
        </g>
    </g>
</svg>